<?xml version="1.0" encoding="utf-8"?>
<!-- Uploaded to: SVG Repo, www.svgrepo.com, Generator: SVG Repo Mixer Tools -->
<svg width="800px" height="800px" viewBox="0 0 1024 1024" class="icon"  version="1.1" xmlns="http://www.w3.org/2000/svg"><path d="M679.48 903.26H341.39a157.72 157.72 0 0 1-157.75-157.69V430.21h653.54v315.34a157.7 157.7 0 0 1-157.7 157.71zM228.71 317.59c73.29-127.65 159.74-170.2 259.17-123.9 99.63 38.79 149.39 17.52 146.48-67.58 123.86 78.23 168.39 142.05 135.21 191.47z" fill="#FFFFFF" /><path d="M341.39 317.59c36.54-61.47 0-124.51 261.32-95.73 56.91 6.27 34.56-10.64 31.64-95.73 123.86 78.23 168.39 142.05 135.21 191.47z" fill="#F6FD8E" /><path d="M273.79 430.21H747v315.35a157.7 157.7 0 0 1-157.7 157.7H431.48a157.7 157.7 0 0 1-157.7-157.7z" fill="#F3DCFF" /><path d="M555.48 430.21h281.7v332.2a140.85 140.85 0 0 1-140.85 140.85 140.85 140.85 0 0 1-140.85-140.85z" fill="#FF80DD" /><path d="M127.3 328.85l766.21 0 0 101.37-766.21 0 0-101.37Z" fill="#F4E6FF" /><path d="M786.57 329l-34-22.83c6.6-9.84 8.56-19.74 6.14-31.18-4.6-21.8-27.36-58.33-106.24-112.46-4.55 24.91-15.35 43.52-32.28 55.53-30.1 21.34-75.81 19.62-139.74-5.28l-1.21-0.52c-44.1-20.54-84-21.65-121.84-3.4-39.1 18.83-76.4 58.84-110.93 118.93L211 307.39c38.7-67.39 82-113 128.66-135.43 48.78-23.49 101.36-22.52 156.29 2.88 61.12 23.7 88.44 18.42 100.59 9.8 12.55-8.9 18.4-28.36 17.4-57.83l-1.32-38.69 32.73 20.67c93.32 58.94 143.53 110.53 153.49 157.73 4.67 22.36 0.56 43.38-12.27 62.48z" fill="" /><path d="M862.85 448.91H162.44a54.33 54.33 0 0 1-54.27-54.27v-34.82a54.33 54.33 0 0 1 54.27-54.27h700.41a54.33 54.33 0 0 1 54.27 54.27v34.82a54.33 54.33 0 0 1-54.27 54.27z m-700.41-102.4a13.33 13.33 0 0 0-13.31 13.31v34.82A13.33 13.33 0 0 0 162.44 408h700.41a13.33 13.33 0 0 0 13.31-13.31v-34.87a13.33 13.33 0 0 0-13.31-13.31z" fill="" /><path d="M431.54 306.32h33.8v135.15h-33.8zM517.76 920H333.45c-94.36 0-174.08-79.72-174.08-174.09V428.43h41v317.45c0 34.78 14.09 68 39.67 93.55S298.74 879 333.45 879h184.31z" fill="" /><path d="M677.51 920H521.86c-98.24 0-178.17-80-178.17-178.21V408h512v333.79C855.68 840 775.75 920 677.51 920zM384.65 448.91v292.88c0 75.67 61.55 137.21 137.21 137.21h155.65c75.66 0 137.22-61.55 137.22-137.22V448.91z" fill="" /></svg>